<svg width="47" height="47" viewBox="0 0 47 47" fill="none" xmlns="http://www.w3.org/2000/svg">
<path d="M4.26484 17.885L8.96484 21.0183C9.09351 21.1041 9.2447 21.1499 9.39935 21.1499H14.0994C14.254 21.1499 14.4052 21.1041 14.5339 21.0183L19.2339 17.885C19.3412 17.8134 19.4291 17.7165 19.49 17.6028C19.5508 17.4891 19.5827 17.3622 19.5827 17.2332V8.61653C19.5827 8.47683 19.5453 8.33967 19.4745 8.21927C19.4036 8.09887 19.3019 7.99961 19.1797 7.93178L12.1297 4.01511C12.0134 3.95044 11.8825 3.9165 11.7494 3.9165C11.6162 3.9165 11.4853 3.95044 11.369 4.01511L4.31897 7.93178C4.19684 7.99961 4.09508 8.09887 4.02423 8.21927C3.95337 8.33967 3.91601 8.47683 3.91602 8.61653V17.2332C3.91601 17.3622 3.94785 17.4891 4.00871 17.6028C4.06956 17.7165 4.15754 17.8134 4.26484 17.885ZM13.8622 19.5832H9.63649L5.48268 16.814V9.94779L11.369 13.2179C11.4853 13.2826 11.6162 13.3165 11.7494 13.3165C11.8825 13.3165 12.0134 13.2826 12.1297 13.2179L18.016 9.94779V16.814L13.8622 19.5832ZM11.7494 5.59598L17.1864 8.61653L11.7494 11.6371L6.3123 8.61653L11.7494 5.59598Z" fill="white"/>
<path d="M44.65 0.783333C44.65 0.575581 44.5675 0.376338 44.4206 0.229435C44.2737 0.0825322 44.0744 2.07749e-06 43.8667 0H37.6C37.3923 2.07749e-06 37.193 0.0825322 37.0461 0.229435C36.8992 0.376338 36.8167 0.575581 36.8167 0.783333V12.5333H31.3333C31.1256 12.5333 30.9263 12.6159 30.7794 12.7628C30.6325 12.9097 30.55 13.1089 30.55 13.3167V22.7167H25.0667C24.8589 22.7167 24.6597 22.7992 24.5128 22.9461C24.3659 23.093 24.2833 23.2923 24.2833 23.5V30.55H18.8C18.5923 30.55 18.393 30.6325 18.2461 30.7794C18.0992 30.9263 18.0167 31.1256 18.0167 31.3333V36.5577C17.3828 36.1892 16.7272 35.8596 16.0534 35.5707L14.1 34.7335V33.6833C14.1 33.4756 14.0175 33.2763 13.8706 33.1294C13.7237 32.9825 13.5244 32.9 13.3167 32.9H0.783333C0.575581 32.9 0.376338 32.9825 0.229435 33.1294C0.0825322 33.2763 2.07749e-06 33.4756 0 33.6833V43.0833C2.07749e-06 43.2911 0.0825322 43.4903 0.229435 43.6372C0.376338 43.7841 0.575581 43.8667 0.783333 43.8667H13.3167C13.5209 43.8668 13.7171 43.7869 13.8631 43.644C14.7443 44.6961 15.8456 45.5419 17.0894 46.1217C18.3332 46.7016 19.6891 47.0014 21.0615 47H28.9833C29.3593 47.0001 29.7299 46.91 30.0638 46.7372C30.3977 46.5644 30.6853 46.314 30.9024 46.007C31.1194 45.7 31.2596 45.3454 31.3112 44.9729C31.3627 44.6005 31.3241 44.2211 31.1986 43.8667H47V42.3H44.65V0.783333ZM25.85 24.2833H30.55V42.3H26.4986C26.6467 41.8818 26.6733 41.4301 26.5753 40.9974C26.4774 40.5646 26.2587 40.1685 25.9449 39.8549C25.914 39.824 25.8823 39.7943 25.85 39.7654L25.85 24.2833ZM19.5833 32.1167H24.2833V39.1667H24.2829L21.4704 39.1672C20.8784 38.5956 20.2479 38.0652 19.5833 37.5797V32.1167ZM12.5333 42.3H1.56667V34.4667H12.5333V42.3ZM28.9833 45.4333H21.0615C19.7716 45.4347 18.5015 45.1169 17.3642 44.5083C16.227 43.8997 15.2581 43.0191 14.5438 41.9451L14.1 41.2795V36.438L15.4362 37.0106C17.3637 37.8347 19.1153 39.0208 20.5962 40.5045C20.6689 40.5772 20.7553 40.6349 20.8503 40.6743C20.9453 40.7137 21.0472 40.734 21.1501 40.734H21.1503L24.2831 40.7333C24.4909 40.7333 24.6902 40.8157 24.8371 40.9626C24.9841 41.1095 25.0667 41.3087 25.0667 41.5164C25.0668 41.7242 24.9843 41.9235 24.8375 42.0704C24.6906 42.2174 24.4914 42.2999 24.2836 42.3H20.3667V43.8667H23.5003V43.8669L28.9833 43.8667C29.0863 43.8666 29.1882 43.8868 29.2834 43.9261C29.3785 43.9654 29.465 44.0231 29.5378 44.0958C29.6106 44.1686 29.6684 44.255 29.7078 44.3501C29.7472 44.4452 29.7675 44.5471 29.7675 44.65C29.7675 44.753 29.7472 44.8549 29.7078 44.95C29.6684 45.0451 29.6106 45.1315 29.5378 45.2042C29.465 45.277 29.3785 45.3347 29.2834 45.374C29.1882 45.4133 29.0863 45.4335 28.9833 45.4333ZM32.1167 14.1H36.8167V42.3H32.1167V14.1ZM38.3833 42.3V1.56667H43.0833V42.3H38.3833Z" fill="white"/>
</svg>
