<svg width="38" height="38" viewBox="0 0 38 38" fill="none" xmlns="http://www.w3.org/2000/svg">
<path d="M13.6953 21.1428V28.4148C13.6972 28.7929 13.549 29.1562 13.2834 29.4252C13.0178 29.6942 12.6563 29.8469 12.2783 29.8498C12.0922 29.8497 11.9079 29.8126 11.7363 29.7407C11.5646 29.6687 11.4089 29.5634 11.2783 29.4308C11.0118 29.1598 10.8627 28.7949 10.8633 28.4148V15.3618C10.8608 16.478 11.1149 17.5798 11.6059 18.5822C12.0969 19.5846 12.8118 20.4607 13.6953 21.1428Z" fill="white"/>
<g filter="url(#filter0_d)">
<path d="M18.1473 8.06454C16.4051 8.06475 14.7204 8.68802 13.3976 9.82175C12.0748 10.9555 11.2011 12.5249 10.9343 14.2465C10.7079 15.7191 10.938 17.2257 11.5935 18.5636C12.2489 19.9015 13.2984 21.0066 14.6007 21.7303C15.903 22.454 17.3957 22.7615 18.878 22.6115C20.3603 22.4615 21.7611 21.8612 22.892 20.8913C24.0229 19.9214 24.8297 18.6284 25.2039 17.1863C25.578 15.7442 25.5016 14.2221 24.9848 12.8247C24.4681 11.4273 23.5358 10.2217 22.3134 9.36997C21.091 8.51825 19.6371 8.06129 18.1473 8.06055V8.06454ZM18.1473 19.8165C17.2671 19.8165 16.4068 19.5556 15.675 19.0666C14.9432 18.5776 14.3728 17.8826 14.036 17.0695C13.6992 16.2564 13.6111 15.3616 13.7828 14.4984C13.9545 13.6352 14.3783 12.8423 15.0006 12.2199C15.623 11.5976 16.4159 11.1738 17.2791 11.0021C18.1423 10.8303 19.0371 10.9185 19.8502 11.2553C20.6633 11.5921 21.3583 12.1625 21.8473 12.8943C22.3363 13.6261 22.5973 14.4864 22.5973 15.3665C22.5973 16.5468 22.1284 17.6786 21.2939 18.5132C20.4593 19.3477 19.3275 19.8165 18.1473 19.8165Z" fill="white"/>
</g>
<path d="M23.3928 29.852C24.5255 29.852 25.4438 28.9337 25.4438 27.801C25.4438 26.6683 24.5255 25.75 23.3928 25.75C22.2601 25.75 21.3418 26.6683 21.3418 27.801C21.3418 28.9337 22.2601 29.852 23.3928 29.852Z" fill="#2BE7F4"/>
<defs>
<filter id="filter0_d" x="8.84961" y="8.06055" width="16.588" height="16.588" filterUnits="userSpaceOnUse" color-interpolation-filters="sRGB">
<feFlood flood-opacity="0" result="BackgroundImageFix"/>
<feColorMatrix in="SourceAlpha" type="matrix" values="0 0 0 0 0 0 0 0 0 0 0 0 0 0 0 0 0 0 127 0"/>
<feOffset dx="-1" dy="1"/>
<feGaussianBlur stdDeviation="0.5"/>
<feColorMatrix type="matrix" values="0 0 0 0 0 0 0 0 0 0 0 0 0 0 0 0 0 0 0.15 0"/>
<feBlend mode="normal" in2="BackgroundImageFix" result="effect1_dropShadow"/>
<feBlend mode="normal" in="SourceGraphic" in2="effect1_dropShadow" result="shape"/>
</filter>
</defs>
</svg>
